<svg xmlns="http://www.w3.org/2000/svg" width="1240" height="1240"><path d="M280.235 605.75l.265 124.75 2.68 5.718c3.715 7.926 10.77 15.14 18.557 18.973 5.436 2.677 7.961 3.263 16.105 3.742l9.658.567.508 16c.464 14.638.733 16.483 3.16 21.675 4.629 9.904 12.758 17.363 23.332 21.411 4.88 1.868 12.306 1.921 309 2.189 209.022.188 306.146-.055 310.869-.778 13.584-2.081 23.852-9.607 29.918-21.928l3.213-6.527V727.5l-2.601-5.546c-3.104-6.616-7.636-11.989-13.543-16.053-6.369-4.382-11.776-6.056-21.856-6.767l-9-.634-.5-94.5-.5-94.5-2.801-6c-4.581-9.815-13.03-17.426-23.127-20.836-4.557-1.538-29.389-1.664-329.265-1.664H279.97l.265 124.75M435.5 513.84c-10.18 3.36-11.679 16.913-2.401 21.711 7.741 4.003 16.901-1.269 16.901-9.726 0-6.887-3.201-10.959-9.515-12.104-1.642-.298-3.885-.244-4.985.119M704 536.026v19.025l-3.075-1.59c-4.969-2.57-13.663-3.583-20.425-2.382-20.062 3.566-30.509 22.806-29.238 53.848.606 14.785 2.752 22.69 8.628 31.782 4.008 6.2 9.934 11.062 16.009 13.132 2.103.717 10.581 1.159 22.234 1.159h18.835l3.266-2.918 3.266-2.917.278-64.083.279-64.082H704v19.026m69.186 15.103c-11.429 1.877-22.468 9.462-27.662 19.004-2.81 5.164-2.937 5.994-3.761 24.66-.946 21.447-.193 30.186 3.226 37.461 2.96 6.296 9.285 12.479 16.011 15.652 5.295 2.497 6.292 2.606 26.75 2.915l21.25.321V631h-18.099c-20.213 0-22.765-.605-26.651-6.316-1.498-2.203-2.25-4.79-2.25-7.746l-.001-4.438h14.751c9.024 0 16.364-.49 18.907-1.264 6.986-2.123 13.479-7.188 16.301-12.715 2.226-4.358 2.541-6.226 2.531-15-.009-8.894-.309-10.588-2.66-15.061-6.89-13.106-22.298-20.016-38.643-17.331M352 597.935c0 26.192.399 45.985.957 47.452 1.931 5.079 4.834 5.613 30.493 5.613H407v-20h-35v-78h-20v44.935m41-34.958v9.977l17.75.273 17.75.273.262 38.75.261 38.75H448.5l-.097-46.169-.097-46.168-3.169-2.832-3.169-2.831H393v9.977m79-.042V573h20.066c12.808 0 20.855.404 22.25 1.117 4.263 2.18 5.638 5.022 5.662 11.7.019 5.555-.189 6.255-1.728 5.794-5.666-1.697-16.609-2.804-23.231-2.35-19.583 1.342-29.873 12.81-28.809 32.106.549 9.955 3.55 16.491 10.298 22.431 7.446 6.555 10.66 7.202 35.747 7.202h21.899l2.923-2.923 2.923-2.923.005-34.327c.004-30.053-.211-34.929-1.729-39.165-2.301-6.419-7.342-12.131-13.638-15.452-5.108-2.694-5.275-2.712-28.888-3.025l-23.75-.316v10.066m91.99-7.079l-2.99 2.99V651h20v-78h12.55c9.43 0 13.301.389 15.575 1.565 5.508 2.848 5.693 4.373 5.12 42.11L613.723 651H634.088l-.294-38.75c-.292-38.509-.309-38.778-2.654-43.25-3.221-6.141-6.722-9.699-12.64-12.843-4.938-2.624-5.29-2.661-28.26-2.974l-23.261-.316-2.989 2.989m271.776.061l-3.266 2.917-.288 46.083-.288 46.083H852v-78h6.865c7.933 0 10.919 1.696 14.156 8.041l1.965 3.851 7.257-3.029c3.991-1.667 8.298-3.442 9.57-3.946l2.313-.915-2.813-5.245c-1.547-2.884-5.063-7.567-7.813-10.406-6.84-7.062-11.495-8.351-30.166-8.351h-14.302l-3.266 2.917m-155.868 17.346c-6.407 4.268-9.461 14.972-8.627 30.237.761 13.909 5.481 23.925 12.544 26.618 1.273.485 6.336.882 11.25.882H704v-26.826c0-26.528-.025-26.849-2.25-28.933-5.19-4.862-16.047-5.844-21.852-1.978m90.559-.4c-5.174 3.155-8.196 7.601-8.964 13.189-.472 3.43-.322 5.519.45 6.291.705.705 5.727 1.275 12.857 1.46 10.385.269 12.068.072 14.975-1.751 7.124-4.466 6.393-14.005-1.47-19.189-3.848-2.537-13.687-2.537-17.848 0m-278.079 35.506c-4.551 2.079-6.382 5.278-6.356 11.104.024 5.313 1.692 8.379 5.662 10.41 1.28.654 7.597 1.117 15.25 1.117H520v-20.657l-5.25-1.24c-8.553-2.021-18.817-2.358-22.372-.734" fill="undefined" fill-rule="evenodd"/></svg>